<?xml version="1.0" standalone="no"?>
<!DOCTYPE svg PUBLIC "-//W3C//DTD SVG 20010904//EN"
 "http://www.w3.org/TR/2001/REC-SVG-20010904/DTD/svg10.dtd">
<svg version="1.0" xmlns="http://www.w3.org/2000/svg"
 width="1024.000000pt" height="1024.000000pt" viewBox="0 0 1024.000000 1024.000000"
 preserveAspectRatio="xMidYMid meet">
<metadata>
Created by potrace 1.11, written by Peter Selinger 2001-2013
</metadata>
<g transform="translate(0.000000,1024.000000) scale(0.100000,-0.100000)"
fill="#000000" stroke="none">
<path d="M0 5120 l0 -5120 5120 0 5120 0 0 5120 0 5120 -5120 0 -5120 0 0
-5120z m3543 3723 l-102 -4 -4 -92 -3 -92 -2 98 -2 97 108 -2 107 -2 -102 -3z
m235 -10 c-15 -2 -42 -2 -60 0 -18 2 -6 4 27 4 33 0 48 -2 33 -4z m115 -10
c-13 -2 -33 -2 -45 0 -13 2 -3 4 22 4 25 0 35 -2 23 -4z m85 -10 c-10 -2 -28
-2 -40 0 -13 2 -5 4 17 4 22 1 32 -1 23 -4z m65 -10 c-7 -2 -21 -2 -30 0 -10
3 -4 5 12 5 17 0 24 -2 18 -5z m50 -10 c-7 -2 -19 -2 -25 0 -7 3 -2 5 12 5 14
0 19 -2 13 -5z m102 -24 c14 -6 9 -7 -15 -3 -19 4 -44 11 -55 15 -14 6 -9 7
15 3 19 -4 44 -11 55 -15z m85 -24 c19 -7 28 -13 20 -13 -8 0 -31 6 -50 13
-19 7 -28 13 -20 13 8 0 31 -6 50 -13z m135 -46 c31 -12 55 -23 53 -25 -4 -3
-109 34 -117 42 -9 8 10 3 64 -17z m105 -44 c14 -8 21 -14 15 -14 -5 0 -21 6
-35 14 -14 8 -20 14 -15 14 6 0 21 -6 35 -14z m-600 -5 c-14 -4 -18 -9 -10 -9
8 -1 38 -12 65 -26 58 -29 53 -28 -32 4 -69 26 -81 42 -30 40 30 -1 31 -1 7
-9z m63 -7 c-7 -2 -19 -2 -25 0 -7 3 -2 5 12 5 14 0 19 -2 13 -5z m44 -9 c-3
-3 -12 -4 -19 -1 -8 3 -5 6 6 6 11 1 17 -2 13 -5z m563 -9 c17 -9 30 -18 30
-21 0 -4 -59 23 -69 32 -10 9 13 3 39 -11z m-505 -5 c13 -5 14 -9 5 -9 -8 0
-24 4 -35 9 -13 5 -14 9 -5 9 8 0 24 -4 35 -9z m-638 -87 c-2 -16 -4 -5 -4 22
0 28 2 40 4 28 2 -13 2 -35 0 -50z m848 1 c250 -123 461 -314 604 -546 46 -75
13 -36 -50 59 -79 120 -221 265 -349 356 -79 55 -206 125 -340 186 l-25 11 25
-6 c14 -3 75 -30 135 -60z m475 -22 c123 -88 288 -262 336 -354 25 -49 8 -30
-31 35 -54 88 -230 260 -345 336 -52 35 -97 66 -100 69 -11 12 79 -43 140 -86z
m-595 -4 c13 -13 -126 61 -140 75 -5 6 22 -7 60 -27 39 -21 75 -43 80 -48z
m168 -109 c184 -130 346 -319 436 -509 28 -59 12 -36 -50 75 -106 185 -237
324 -434 457 -49 34 -94 66 -100 71 -17 17 54 -28 148 -94z m-886 29 c-2 -13
-4 -3 -4 22 0 25 2 35 4 23 2 -13 2 -33 0 -45z m10 -65 c-3 -10 -5 -4 -5 12 0
17 2 24 5 18 2 -7 2 -21 0 -30z m10 -60 c-3 -10 -5 -4 -5 12 0 17 2 24 5 18 2
-7 2 -21 0 -30z m10 -55 c-3 -7 -5 -2 -5 12 0 14 2 19 5 13 2 -7 2 -19 0 -25z
m10 -40 c-3 -8 -6 -5 -6 6 -1 11 2 17 5 13 3 -3 4 -12 1 -19z m21 -78 c0 -9
-3 -7 -8 5 -5 11 -8 29 -8 40 0 16 2 15 8 -5 4 -14 8 -32 8 -40z m1627 -41 c9
-17 15 -33 13 -35 -3 -2 -12 12 -21 31 -21 43 -13 47 8 4z m-1589 -86 c-5 -5
-36 86 -35 101 0 6 9 -13 20 -43 10 -30 17 -56 15 -58z m1624 2 c0 -5 -5 -3
-10 5 -5 8 -10 20 -10 25 0 6 5 3 10 -5 5 -8 10 -19 10 -25z m977 8 c-20 -2
-52 -2 -70 0 -17 2 0 4 38 4 39 0 53 -2 32 -4z m146 0 c-18 -2 -48 -2 -65 0
-18 2 -4 4 32 4 36 0 50 -2 33 -4z m-270 -10 c-7 -2 -19 -2 -25 0 -7 3 -2 5
12 5 14 0 19 -2 13 -5z m365 0 c-10 -2 -26 -2 -35 0 -10 3 -2 5 17 5 19 0 27
-2 18 -5z m-411 -9 c-3 -3 -12 -4 -19 -1 -8 3 -5 6 6 6 11 1 17 -2 13 -5z
m466 -1 c-7 -2 -19 -2 -25 0 -7 3 -2 5 12 5 14 0 19 -2 13 -5z m-2857 -90 c-4
-4 -36 73 -35 85 0 4 9 -13 20 -37 11 -24 18 -46 15 -48z m1603 47 c0 -10 -3
-8 -9 5 -12 27 -12 43 0 25 5 -8 9 -22 9 -30z m706 21 c-80 -29 -185 -85 -255
-137 -157 -115 -218 -183 -296 -327 -24 -45 -44 -77 -44 -72 0 19 80 157 124
214 47 60 110 118 216 195 90 66 247 145 290 145 8 0 -7 -8 -35 -18z m625 9
c20 -6 21 -8 5 -8 -11 0 -31 4 -45 8 -20 6 -21 8 -5 8 11 0 31 -4 45 -8z m120
-35 c19 -7 28 -13 20 -13 -8 0 -31 6 -50 13 -19 7 -28 13 -20 13 8 0 31 -6 50
-13z m-1671 -94 c41 -73 53 -104 28 -66 -24 36 -89 160 -78 150 5 -5 28 -43
50 -84z m240 29 c0 -9 -4 -8 -9 5 -5 11 -9 27 -9 35 0 9 4 8 9 -5 5 -11 9 -27
9 -35z m1531 28 c10 -6 7 -7 -10 -2 -14 3 -32 11 -40 16 -10 6 -7 7 10 2 14
-3 32 -11 40 -16z m-397 -5 c-13 -2 -33 -2 -45 0 -13 2 -3 4 22 4 25 0 35 -2
23 -4z m97 -3 c0 -12 -27 -12 -55 0 -16 7 -13 9 18 9 20 1 37 -3 37 -9z m-187
-7 c-7 -2 -21 -2 -30 0 -10 3 -4 5 12 5 17 0 24 -2 18 -5z m537 -3 c8 -5 12
-11 10 -14 -3 -2 -14 2 -24 10 -22 15 -10 19 14 4z m-3171 -47 c12 -24 19 -43
16 -43 -5 0 -45 75 -45 86 0 11 6 2 29 -43z m2574 40 c-7 -2 -19 -2 -25 0 -7
3 -2 5 12 5 14 0 19 -2 13 -5z m190 0 c-7 -2 -19 -2 -25 0 -7 3 -2 5 12 5 14
0 19 -2 13 -5z m-253 -13 c-34 -11 -60 -11 -35 0 11 5 29 8 40 8 16 0 15 -2
-5 -8z m203 3 c-7 -2 -19 -2 -25 0 -7 3 -2 5 12 5 14 0 19 -2 13 -5z m-58 -13
c-11 -5 -27 -9 -35 -9 -9 0 -8 4 5 9 11 5 27 9 35 9 9 0 8 -4 -5 -9z m-1058
-22 c-3 -8 -6 -5 -6 6 -1 11 2 17 5 13 3 -3 4 -12 1 -19z m752 -22 c-42 -18
-94 -43 -115 -56 -159 -97 -376 -296 -526 -482 -75 -94 -103 -120 -43 -40 119
156 312 346 479 470 71 53 237 142 266 142 8 0 -19 -15 -61 -34z m-1130 -71
c0 -5 -11 10 -24 35 -13 25 -24 50 -24 55 0 6 11 -10 24 -35 13 -25 24 -49 24
-55z m1311 75 c-8 -5 -19 -10 -25 -10 -5 0 -3 5 5 10 8 5 20 10 25 10 6 0 3
-5 -5 -10z m621 -17 c-12 -20 -14 -14 -5 12 4 9 9 14 11 11 3 -2 0 -13 -6 -23z
m-1544 -5 c-3 -8 -6 -5 -6 6 -1 11 2 17 5 13 3 -3 4 -12 1 -19z m808 -31
c-104 -54 -166 -100 -241 -179 -78 -81 -131 -154 -188 -253 -25 -44 -46 -76
-46 -71 0 14 59 116 109 186 57 81 169 200 234 248 54 39 185 111 202 111 6 0
-26 -19 -70 -42z m-2324 -77 c72 -108 243 -290 360 -381 88 -70 104 -88 32
-37 -131 93 -375 357 -443 481 -33 60 -21 45 51 -63z m1526 43 c-3 -10 -5 -2
-5 17 0 19 2 27 5 18 2 -10 2 -26 0 -35z m1512 8 c-6 -18 -13 -30 -15 -28 -2
2 1 18 7 36 6 18 13 30 15 28 2 -2 -1 -18 -7 -36z m-1660 -136 c0 -5 -15 19
-34 55 -19 36 -34 70 -34 75 0 6 15 -19 34 -55 19 -36 34 -69 34 -75z m-229
90 c0 -5 -5 -3 -10 5 -5 8 -10 20 -10 25 0 6 5 3 10 -5 5 -8 10 -19 10 -25z
m387 -32 c-3 -10 -5 -2 -5 17 0 19 2 27 5 18 2 -10 2 -26 0 -35z m1474 10
c-12 -20 -14 -14 -5 12 4 9 9 14 11 11 3 -2 0 -13 -6 -23z m-1841 -28 c0 -5
-5 -3 -10 5 -5 8 -10 20 -10 25 0 6 5 3 10 -5 5 -8 10 -19 10 -25z m1806 -54
c-15 -28 -28 -51 -31 -51 -3 0 7 25 22 55 15 30 29 53 31 51 2 -2 -8 -27 -22
-55z m-1407 -203 c7 18 16 31 18 29 6 -7 -30 -77 -39 -77 -4 0 -7 64 -6 143
l2 142 6 -135 c5 -127 6 -133 19 -102z m-160 147 c0 -5 -6 1 -14 15 -8 14 -14
30 -14 35 0 6 6 -1 14 -15 8 -14 14 -29 14 -35z m-191 -45 c0 -8 -6 1 -13 20
-7 19 -13 42 -13 50 0 8 6 -1 13 -20 7 -19 13 -42 13 -50z m1713 23 c-16 -32
-202 -246 -258 -299 -47 -45 -133 -103 -133 -91 0 3 19 17 43 30 24 14 65 47
91 73 54 53 217 241 242 279 19 28 29 34 15 8z m-1501 -28 c0 -5 -5 -3 -10 5
-5 8 -10 20 -10 25 0 6 5 3 10 -5 5 -8 10 -19 10 -25z m-203 -47 c-3 -7 -5 -2
-5 12 0 14 2 19 5 13 2 -7 2 -19 0 -25z m227 -18 c5 -17 4 -20 -2 -10 -5 8
-13 26 -16 40 -5 17 -4 20 2 10 5 -8 13 -26 16 -40z m-217 -32 c-3 -7 -5 -2
-5 12 0 14 2 19 5 13 2 -7 2 -19 0 -25z m10 -50 c-3 -7 -5 -2 -5 12 0 14 2 19
5 13 2 -7 2 -19 0 -25z m242 -28 c0 -9 -4 -8 -9 5 -5 11 -9 27 -9 35 0 9 4 8
9 -5 5 -11 9 -27 9 -35z m-232 -27 c-3 -10 -5 -4 -5 12 0 17 2 24 5 18 2 -7 2
-21 0 -30z m240 -25 c-3 -7 -5 -2 -5 12 0 14 2 19 5 13 2 -7 2 -19 0 -25z
m-230 -50 c-2 -13 -4 -5 -4 17 -1 22 1 32 4 23 2 -10 2 -28 0 -40z m564 -5
c-11 -21 -20 -35 -21 -31 0 12 33 78 38 74 2 -2 -6 -21 -17 -43z m-1216 -54
c55 -28 89 -47 75 -43 -36 9 -191 91 -220 115 -24 20 -23 20 10 -1 19 -12 80
-44 135 -71z m892 69 c-3 -8 -6 -5 -6 6 -1 11 2 17 5 13 3 -3 4 -12 1 -19z
m25 -42 c7 4 8 2 4 -5 -10 -15 -26 -4 -25 17 1 15 2 15 6 -1 2 -9 9 -14 15
-11z m-255 -98 c-2 -18 -4 -4 -4 32 0 36 2 50 4 33 2 -18 2 -48 0 -65z m514
35 c-11 -21 -20 -35 -21 -31 0 12 33 78 38 74 2 -2 -6 -21 -17 -43z m719 -8
c-14 -8 -29 -14 -35 -14 -5 0 1 6 15 14 14 8 30 14 35 14 6 0 -1 -6 -15 -14z
m-76 -30 c-17 -8 -44 -16 -60 -20 -16 -3 -6 4 21 14 57 22 86 26 39 6z m-1589
-5 c27 -7 27 -8 5 -8 -14 0 -36 4 -50 8 -20 6 -21 8 -5 8 11 0 34 -4 50 -8z
m78 -17 c-7 -2 -21 -2 -30 0 -10 3 -4 5 12 5 17 0 24 -2 18 -5z m65 -10 c-10
-2 -26 -2 -35 0 -10 3 -2 5 17 5 19 0 27 -2 18 -5z m1337 -2 c-11 -5 -36 -11
-55 -14 -35 -6 -34 -6 5 8 43 14 84 19 50 6z m-1252 -8 c-13 -2 -33 -2 -45 0
-13 2 -3 4 22 4 25 0 35 -2 23 -4z m762 -7 c28 -8 41 -14 30 -14 -21 0 -107
25 -90 27 6 0 33 -6 60 -13z m-607 -3 c-21 -2 -57 -2 -80 0 -24 2 -7 4 37 4
44 0 63 -2 43 -4z m995 -10 c-7 -2 -19 -2 -25 0 -7 3 -2 5 12 5 14 0 19 -2 13
-5z m-300 -10 c-7 -2 -19 -2 -25 0 -7 3 -2 5 12 5 14 0 19 -2 13 -5z m250 0
c-7 -2 -19 -2 -25 0 -7 3 -2 5 12 5 14 0 19 -2 13 -5z m-85 -10 c-26 -2 -71
-2 -100 0 -29 2 -8 3 47 3 55 0 79 -1 53 -3z m-565 -180 c-62 -2 -165 -2 -230
0 -65 1 -14 3 112 3 127 0 180 -2 118 -3z m-435 -10 c-15 -2 -42 -2 -60 0 -18
2 -6 4 27 4 33 0 48 -2 33 -4z m685 0 c-18 -2 -48 -2 -65 0 -18 2 -4 4 32 4
36 0 50 -2 33 -4z m-810 -10 c-13 -2 -35 -2 -50 0 -16 2 -5 4 22 4 28 0 40 -2
28 -4z m930 0 c-13 -2 -35 -2 -50 0 -16 2 -5 4 22 4 28 0 40 -2 28 -4z m-1035
-10 c-10 -2 -28 -2 -40 0 -13 2 -5 4 17 4 22 1 32 -1 23 -4z m1130 0 c-10 -2
-28 -2 -40 0 -13 2 -5 4 17 4 22 1 32 -1 23 -4z m-1210 -10 c-10 -2 -28 -2
-40 0 -13 2 -5 4 17 4 22 1 32 -1 23 -4z m1290 0 c-10 -2 -28 -2 -40 0 -13 2
-5 4 17 4 22 1 32 -1 23 -4z m-1365 -10 c-7 -2 -21 -2 -30 0 -10 3 -4 5 12 5
17 0 24 -2 18 -5z m1430 0 c-7 -2 -21 -2 -30 0 -10 3 -4 5 12 5 17 0 24 -2 18
-5z m-1495 -10 c-10 -2 -26 -2 -35 0 -10 3 -2 5 17 5 19 0 27 -2 18 -5z m1560
0 c-10 -2 -26 -2 -35 0 -10 3 -2 5 17 5 19 0 27 -2 18 -5z m-1625 -10 c-7 -2
-21 -2 -30 0 -10 3 -4 5 12 5 17 0 24 -2 18 -5z m1680 0 c-7 -2 -19 -2 -25 0
-7 3 -2 5 12 5 14 0 19 -2 13 -5z m-1736 -9 c-3 -3 -12 -4 -19 -1 -8 3 -5 6 6
6 11 1 17 -2 13 -5z m1786 -1 c-7 -2 -19 -2 -25 0 -7 3 -2 5 12 5 14 0 19 -2
13 -5z m-1830 -10 c-7 -2 -19 -2 -25 0 -7 3 -2 5 12 5 14 0 19 -2 13 -5z
m1880 0 c-7 -2 -19 -2 -25 0 -7 3 -2 5 12 5 14 0 19 -2 13 -5z m-1930 -10 c-7
-2 -19 -2 -25 0 -7 3 -2 5 12 5 14 0 19 -2 13 -5z m1980 0 c-7 -2 -19 -2 -25
0 -7 3 -2 5 12 5 14 0 19 -2 13 -5z m-2043 -13 c-34 -11 -60 -11 -35 0 11 5
29 8 40 8 16 0 15 -2 -5 -8z m2087 4 c-3 -3 -12 -4 -19 -1 -8 3 -5 6 6 6 11 1
17 -2 13 -5z m73 -14 c20 -6 21 -8 5 -8 -11 0 -31 4 -45 8 -20 6 -21 8 -5 8
11 0 31 -4 45 -8z m-2240 -10 c-34 -11 -60 -11 -35 0 11 5 29 8 40 8 16 0 15
-2 -5 -8z m2315 -10 c13 -5 14 -9 5 -9 -8 0 -24 4 -35 9 -13 5 -14 9 -5 9 8 0
24 -4 35 -9z m-2378 -6 c-3 -3 -12 -4 -19 -1 -8 3 -5 6 6 6 11 1 17 -2 13 -5z
m-52 -14 c-11 -5 -27 -9 -35 -9 -9 0 -8 4 5 9 11 5 27 9 35 9 9 0 8 -4 -5 -9z
m2512 -6 c-3 -3 -12 -4 -19 -1 -8 3 -5 6 6 6 11 1 17 -2 13 -5z m-2582 -14
c-27 -12 -43 -12 -25 0 8 5 22 9 30 9 10 0 8 -3 -5 -9z m2635 0 c18 -12 2 -12
-25 0 -13 6 -15 9 -5 9 8 0 22 -4 30 -9z m-2744 -36 c-38 -13 -71 -22 -73 -20
-5 5 107 44 127 44 8 0 -16 -10 -54 -24z m2843 5 c34 -12 60 -23 58 -25 -2 -2
-35 7 -73 20 -38 14 -64 25 -58 25 5 1 38 -8 73 -20z m-2939 -39 c-8 -5 -19
-10 -25 -10 -5 0 -3 5 5 10 8 5 20 10 25 10 6 0 3 -5 -5 -10z m3070 -12 c10
-6 7 -7 -10 -2 -14 3 -32 11 -40 16 -10 6 -7 7 10 2 14 -3 32 -11 40 -16z
m-3150 -18 c-8 -5 -19 -10 -25 -10 -5 0 -3 5 5 10 8 5 20 10 25 10 6 0 3 -5
-5 -10z m3200 0 c8 -5 11 -10 5 -10 -5 0 -17 5 -25 10 -8 5 -10 10 -5 10 6 0
17 -5 25 -10z m-3260 -25 c-14 -8 -29 -14 -35 -14 -5 0 1 6 15 14 14 8 30 14
35 14 6 0 -1 -6 -15 -14z m3320 0 c14 -8 21 -14 15 -14 -5 0 -21 6 -35 14 -14
8 -20 14 -15 14 6 0 21 -6 35 -14z m-3410 -40 c-25 -13 -49 -24 -55 -24 -5 0
10 11 35 24 25 13 50 24 55 24 6 0 -10 -11 -35 -24z m3510 -5 c30 -16 51 -29
45 -29 -5 0 -35 13 -65 29 -30 16 -50 29 -45 29 6 0 35 -13 65 -29z m-3580
-24 c0 -2 -7 -7 -16 -10 -8 -3 -12 -2 -9 4 6 10 25 14 25 6z m1583 -3 c-24 -2
-62 -2 -85 0 -24 2 -5 4 42 4 47 0 66 -2 43 -4z m540 0 c-24 -2 -62 -2 -85 0
-24 2 -5 4 42 4 47 0 66 -2 43 -4z m-715 -10 c-15 -2 -42 -2 -60 0 -18 2 -6 4
27 4 33 0 48 -2 33 -4z m870 0 c-15 -2 -42 -2 -60 0 -18 2 -6 4 27 4 33 0 48
-2 33 -4z m-2319 -7 c-10 -9 -69 -36 -69 -32 0 7 52 35 64 36 5 0 7 -2 5 -4z
m1324 -3 c-13 -2 -35 -2 -50 0 -16 2 -5 4 22 4 28 0 40 -2 28 -4z m1110 0
c-13 -2 -35 -2 -50 0 -16 2 -5 4 22 4 28 0 40 -2 28 -4z m1307 -8 c17 -9 30
-18 30 -21 0 -4 -59 23 -69 32 -10 9 13 3 39 -11z m-2522 -2 c-10 -2 -26 -2
-35 0 -10 3 -2 5 17 5 19 0 27 -2 18 -5z m1300 0 c-10 -2 -26 -2 -35 0 -10 3
-2 5 17 5 19 0 27 -2 18 -5z m-1380 -10 c-10 -2 -26 -2 -35 0 -10 3 -2 5 17 5
19 0 27 -2 18 -5z m1460 0 c-10 -2 -26 -2 -35 0 -10 3 -2 5 17 5 19 0 27 -2
18 -5z m-1530 -10 c-10 -2 -26 -2 -35 0 -10 3 -2 5 17 5 19 0 27 -2 18 -5z
m1600 0 c-10 -2 -26 -2 -35 0 -10 3 -2 5 17 5 19 0 27 -2 18 -5z m-2758 -14
c-8 -5 -55 -32 -105 -60 -112 -64 -276 -170 -332 -216 -24 -19 -41 -28 -38
-21 9 23 319 223 450 292 33 17 48 20 25 5z m1083 4 c-7 -2 -21 -2 -30 0 -10
3 -4 5 12 5 17 0 24 -2 18 -5z m1745 0 c-10 -2 -26 -2 -35 0 -10 3 -2 5 17 5
19 0 27 -2 18 -5z m1187 -70 c103 -60 335 -217 340 -231 3 -7 -14 2 -38 21
-65 53 -191 135 -312 204 -60 34 -117 67 -125 73 -27 18 73 -31 135 -67z
m-2992 60 c-7 -2 -21 -2 -30 0 -10 3 -4 5 12 5 17 0 24 -2 18 -5z m1860 0 c-7
-2 -19 -2 -25 0 -7 3 -2 5 12 5 14 0 19 -2 13 -5z m-1920 -10 c-7 -2 -19 -2
-25 0 -7 3 -2 5 12 5 14 0 19 -2 13 -5z m1980 0 c-7 -2 -19 -2 -25 0 -7 3 -2
5 12 5 14 0 19 -2 13 -5z m-2030 -10 c-7 -2 -19 -2 -25 0 -7 3 -2 5 12 5 14 0
19 -2 13 -5z m2080 0 c-7 -2 -19 -2 -25 0 -7 3 -2 5 12 5 14 0 19 -2 13 -5z
m-2130 -10 c-7 -2 -19 -2 -25 0 -7 3 -2 5 12 5 14 0 19 -2 13 -5z m2180 0 c-7
-2 -19 -2 -25 0 -7 3 -2 5 12 5 14 0 19 -2 13 -5z m-2230 -10 c-7 -2 -19 -2
-25 0 -7 3 -2 5 12 5 14 0 19 -2 13 -5z m2280 0 c-7 -2 -19 -2 -25 0 -7 3 -2
5 12 5 14 0 19 -2 13 -5z m-2326 -9 c-3 -3 -12 -4 -19 -1 -8 3 -5 6 6 6 11 1
17 -2 13 -5z m2370 0 c-3 -3 -12 -4 -19 -1 -8 3 -5 6 6 6 11 1 17 -2 13 -5z
m-2410 -10 c-3 -3 -12 -4 -19 -1 -8 3 -5 6 6 6 11 1 17 -2 13 -5z m2450 0 c-3
-3 -12 -4 -19 -1 -8 3 -5 6 6 6 11 1 17 -2 13 -5z m-2490 -10 c-3 -3 -12 -4
-19 -1 -8 3 -5 6 6 6 11 1 17 -2 13 -5z m2530 0 c-3 -3 -12 -4 -19 -1 -8 3 -5
6 6 6 11 1 17 -2 13 -5z m-2570 -10 c-3 -3 -12 -4 -19 -1 -8 3 -5 6 6 6 11 1
17 -2 13 -5z m2610 0 c-3 -3 -12 -4 -19 -1 -8 3 -5 6 6 6 11 1 17 -2 13 -5z
m-2650 -10 c-3 -3 -12 -4 -19 -1 -8 3 -5 6 6 6 11 1 17 -2 13 -5z m2690 0 c-3
-3 -12 -4 -19 -1 -8 3 -5 6 6 6 11 1 17 -2 13 -5z m-2742 -14 c-11 -5 -27 -9
-35 -9 -9 0 -8 4 5 9 11 5 27 9 35 9 9 0 8 -4 -5 -9z m2800 0 c13 -5 14 -9 5
-9 -8 0 -24 4 -35 9 -13 5 -14 9 -5 9 8 0 24 -4 35 -9z m-2900 -30 c-27 -10
-57 -18 -65 -18 -8 0 8 8 35 18 28 10 57 18 65 18 8 0 -7 -8 -35 -18z m3000 0
c28 -10 43 -18 35 -18 -8 0 -37 8 -65 18 -27 10 -43 18 -35 18 8 0 38 -8 65
-18z m163 -55 c29 -9 52 -19 49 -21 -5 -5 -127 36 -127 43 0 3 6 3 13 1 6 -3
36 -13 65 -23z m-3308 11 c0 -6 -93 -37 -97 -32 -2 2 15 11 39 19 47 17 58 19
58 13z m-120 -45 c-8 -5 -26 -11 -40 -15 -21 -5 -20 -3 5 9 32 15 60 20 35 6z
m3550 -13 c10 -6 7 -7 -10 -2 -14 3 -32 11 -40 16 -10 6 -7 7 10 2 14 -3 32
-11 40 -16z m-3640 -23 c-14 -8 -29 -14 -35 -14 -5 0 1 6 15 14 14 8 30 14 35
14 6 0 -1 -6 -15 -14z m3728 -10 c24 -10 41 -19 39 -22 -3 -2 -29 8 -58 22
-59 27 -50 28 19 0z m-3788 -15 c-8 -5 -19 -10 -25 -10 -5 0 -3 5 5 10 8 5 20
10 25 10 6 0 3 -5 -5 -10z m-90 -40 c-30 -16 -59 -29 -65 -29 -5 0 15 13 45
29 30 16 60 29 65 29 6 0 -15 -13 -45 -29z m4000 0 c30 -16 51 -29 45 -29 -5
0 -35 13 -65 29 -30 16 -50 29 -45 29 6 0 35 -13 65 -29z m-4453 -32 c-14 -24
-41 -73 -62 -110 -37 -69 -60 -96 -29 -35 32 63 106 187 111 187 3 0 -6 -19
-20 -42z m4938 -74 c36 -64 64 -118 62 -120 -2 -2 -25 36 -52 84 -27 48 -57
102 -68 120 -10 17 -17 32 -14 32 3 0 35 -52 72 -116z m-4570 66 c-3 -5 -12
-10 -18 -10 -7 0 -6 4 3 10 19 12 23 12 15 0z m4190 -18 c-3 -3 -11 0 -18 7
-9 10 -8 11 6 5 10 -3 15 -9 12 -12z m-4266 -25 c-13 -13 -26 -21 -29 -19 -5
4 38 42 48 42 3 0 -6 -10 -19 -23z m4326 -8 c13 -20 0 -15 -25 9 -23 22 -23
24 -3 13 12 -6 25 -16 28 -22z m39 -99 c3 -14 -3 -7 -13 15 -11 22 -20 45 -20
50 0 15 26 -37 33 -65z m-4413 13 c-12 -20 -14 -14 -5 12 4 9 9 14 11 11 3 -2
0 -13 -6 -23z m-358 -58 c-3 -9 -8 -14 -10 -11 -3 3 -2 9 2 15 9 16 15 13 8
-4z m-40 -80 c-15 -30 -29 -53 -31 -51 -4 5 46 106 53 106 3 0 -7 -25 -22 -55z
m5203 4 c14 -28 24 -53 22 -55 -2 -2 -16 21 -31 51 -15 30 -25 55 -22 55 3 0
16 -23 31 -51z m-4852 -13 c-3 -15 -8 -25 -11 -23 -2 3 -1 17 3 31 3 15 8 25
11 23 2 -3 1 -17 -3 -31z m4525 -66 c0 -9 -4 -8 -9 5 -5 11 -9 27 -9 35 0 9 4
8 9 -5 5 -11 9 -27 9 -35z m-4938 -56 c-16 -33 -30 -56 -31 -52 0 11 53 118
58 114 2 -2 -10 -30 -27 -62z m383 22 c-3 -15 -8 -25 -11 -23 -2 3 -1 17 3 31
3 15 8 25 11 23 2 -3 1 -17 -3 -31z m4965 -71 c0 -5 -11 10 -24 35 -13 25 -24
50 -24 55 0 6 11 -10 24 -35 13 -25 24 -49 24 -55z m-369 -34 c11 -46 19 -85
17 -88 -4 -3 -47 156 -47 173 0 20 11 -10 30 -85z m-4613 47 c-3 -8 -6 -5 -6
6 -1 11 2 17 5 13 3 -3 4 -12 1 -19z m-13 -52 c-3 -15 -8 -25 -11 -23 -2 3 -1
17 3 31 3 15 8 25 11 23 2 -3 1 -17 -3 -31z m-398 -13 c-8 -15 -15 -25 -16
-21 0 12 23 58 27 54 3 -2 -2 -17 -11 -33z m5423 -18 c0 -5 -6 1 -14 15 -8 14
-14 30 -14 35 0 6 6 -1 14 -15 8 -14 14 -29 14 -35z m-5042 -27 c-3 -8 -6 -5
-6 6 -1 11 2 17 5 13 3 -3 4 -12 1 -19z m-406 -15 c-12 -20 -14 -14 -5 12 4 9
9 14 11 11 3 -2 0 -13 -6 -23z m5483 -43 c3 -14 -3 -7 -13 15 -11 22 -20 45
-20 50 0 15 26 -37 33 -65z m-5087 18 c-3 -8 -6 -5 -6 6 -1 11 2 17 5 13 3 -3
4 -12 1 -19z m-416 -25 c-12 -20 -14 -14 -5 12 4 9 9 14 11 11 3 -2 0 -13 -6
-23z m5107 -38 c0 -16 -2 -15 -8 5 -4 14 -8 34 -8 45 0 16 2 15 8 -5 4 -14 8
-34 8 -45z m-4701 23 c-3 -8 -6 -5 -6 6 -1 11 2 17 5 13 3 -3 4 -12 1 -19z
m-428 -47 c-6 -18 -13 -30 -15 -28 -2 2 1 18 7 36 6 18 13 30 15 28 2 -2 -1
-18 -7 -36z m5551 4 c0 -5 -5 -3 -10 5 -5 8 -10 20 -10 25 0 6 5 3 10 -5 5 -8
10 -19 10 -25z m-5136 -19 c-3 -21 -8 -35 -11 -32 -2 2 -1 20 3 40 3 21 8 35
11 32 2 -2 1 -20 -3 -40z m2479 37 c-67 -2 -179 -2 -250 0 -70 1 -15 3 122 3
138 0 195 -2 128 -3z m-545 -10 c-32 -2 -84 -2 -115 0 -32 2 -6 3 57 3 63 0
89 -1 58 -3z m955 0 c-35 -2 -91 -2 -125 0 -35 2 -7 3 62 3 69 0 97 -1 63 -3z
m-1195 -10 c-21 -2 -55 -2 -75 0 -21 2 -4 4 37 4 41 0 58 -2 38 -4z m1400 0
c-21 -2 -55 -2 -75 0 -21 2 -4 4 37 4 41 0 58 -2 38 -4z m-1575 -10 c-18 -2
-48 -2 -65 0 -18 2 -4 4 32 4 36 0 50 -2 33 -4z m1744 0 c-20 -2 -52 -2 -70 0
-17 2 0 4 38 4 39 0 53 -2 32 -4z m1460 -15 c-3 -8 -6 -5 -6 6 -1 11 2 17 5
13 3 -3 4 -12 1 -19z m-3339 5 c-16 -2 -40 -2 -55 0 -16 2 -3 4 27 4 30 0 43
-2 28 -4z m2005 0 c-13 -2 -35 -2 -50 0 -16 2 -5 4 22 4 28 0 40 -2 28 -4z
m-2125 -10 c-16 -2 -40 -2 -55 0 -16 2 -3 4 27 4 30 0 43 -2 28 -4z m2240 0
c-16 -2 -40 -2 -55 0 -16 2 -3 4 27 4 30 0 43 -2 28 -4z m-2370 -10 c-10 -2
-26 -2 -35 0 -10 3 -2 5 17 5 19 0 27 -2 18 -5z m2480 0 c-10 -2 -28 -2 -40 0
-13 2 -5 4 17 4 22 1 32 -1 23 -4z m-4072 -79 c-14 -38 -25 -64 -25 -58 -1 15
40 136 45 131 2 -2 -7 -35 -20 -73z m1507 69 c-13 -2 -33 -2 -45 0 -13 2 -3 4
22 4 25 0 35 -2 23 -4z m2660 0 c-13 -2 -33 -2 -45 0 -13 2 -3 4 22 4 25 0 35
-2 23 -4z m1024 -25 c-3 -7 -5 -2 -5 12 0 14 2 19 5 13 2 -7 2 -19 0 -25z
m442 -30 c12 -34 21 -67 20 -72 0 -6 -8 12 -18 39 -27 76 -33 95 -28 95 3 0
15 -28 26 -62z m-4221 45 c-10 -2 -28 -2 -40 0 -13 2 -5 4 17 4 22 1 32 -1 23
-4z m2850 0 c-10 -2 -28 -2 -40 0 -13 2 -5 4 17 4 22 1 32 -1 23 -4z m-3821
-25 c-3 -8 -6 -5 -6 6 -1 11 2 17 5 13 3 -3 4 -12 1 -19z m881 15 c-10 -2 -28
-2 -40 0 -13 2 -5 4 17 4 22 1 32 -1 23 -4z m3030 0 c-10 -2 -28 -2 -40 0 -13
2 -5 4 17 4 22 1 32 -1 23 -4z m-3110 -10 c-10 -2 -26 -2 -35 0 -10 3 -2 5 17
5 19 0 27 -2 18 -5z m3180 0 c-10 -2 -26 -2 -35 0 -10 3 -2 5 17 5 19 0 27 -2
18 -5z m-3260 -10 c-10 -2 -28 -2 -40 0 -13 2 -5 4 17 4 22 1 32 -1 23 -4z
m3350 0 c-10 -2 -28 -2 -40 0 -13 2 -5 4 17 4 22 1 32 -1 23 -4z m-3430 -10
c-10 -2 -26 -2 -35 0 -10 3 -2 5 17 5 19 0 27 -2 18 -5z m3500 0 c-10 -2 -26
-2 -35 0 -10 3 -2 5 17 5 19 0 27 -2 18 -5z m619 -15 c-3 -8 -6 -5 -6 6 -1 11
2 17 5 13 3 -3 4 -12 1 -19z m-4770 -10 c-3 -8 -6 -5 -6 6 -1 11 2 17 5 13 3
-3 4 -12 1 -19z m576 15 c-7 -2 -21 -2 -30 0 -10 3 -4 5 12 5 17 0 24 -2 18
-5z m3650 0 c-7 -2 -21 -2 -30 0 -10 3 -4 5 12 5 17 0 24 -2 18 -5z m-3715
-10 c-10 -2 -26 -2 -35 0 -10 3 -2 5 17 5 19 0 27 -2 18 -5z m3780 0 c-10 -2
-26 -2 -35 0 -10 3 -2 5 17 5 19 0 27 -2 18 -5z m-3845 -10 c-7 -2 -21 -2 -30
0 -10 3 -4 5 12 5 17 0 24 -2 18 -5z m3910 0 c-7 -2 -21 -2 -30 0 -10 3 -4 5
12 5 17 0 24 -2 18 -5z m-3975 -10 c-10 -2 -26 -2 -35 0 -10 3 -2 5 17 5 19 0
27 -2 18 -5z m4040 0 c-10 -2 -26 -2 -35 0 -10 3 -2 5 17 5 19 0 27 -2 18 -5z
m359 -25 c-3 -7 -5 -2 -5 12 0 14 2 19 5 13 2 -7 2 -19 0 -25z m-4790 -10 c-3
-7 -5 -2 -5 12 0 14 2 19 5 13 2 -7 2 -19 0 -25z m326 25 c-7 -2 -21 -2 -30 0
-10 3 -4 5 12 5 17 0 24 -2 18 -5z m4170 0 c-7 -2 -21 -2 -30 0 -10 3 -4 5 12
5 17 0 24 -2 18 -5z m-4230 -10 c-7 -2 -21 -2 -30 0 -10 3 -4 5 12 5 17 0 24
-2 18 -5z m4290 0 c-7 -2 -21 -2 -30 0 -10 3 -4 5 12 5 17 0 24 -2 18 -5z
m-4350 -10 c-7 -2 -19 -2 -25 0 -7 3 -2 5 12 5 14 0 19 -2 13 -5z m4410 0 c-7
-2 -21 -2 -30 0 -10 3 -4 5 12 5 17 0 24 -2 18 -5z m-4470 -10 c-7 -2 -19 -2
-25 0 -7 3 -2 5 12 5 14 0 19 -2 13 -5z m4520 0 c-7 -2 -19 -2 -25 0 -7 3 -2
5 12 5 14 0 19 -2 13 -5z m-4580 -10 c-7 -2 -19 -2 -25 0 -7 3 -2 5 12 5 14 0
19 -2 13 -5z m4640 0 c-7 -2 -19 -2 -25 0 -7 3 -2 5 12 5 14 0 19 -2 13 -5z
m-4696 -9 c-3 -3 -12 -4 -19 -1 -8 3 -5 6 6 6 11 1 17 -2 13 -5z m4750 0 c-3
-3 -12 -4 -19 -1 -8 3 -5 6 6 6 11 1 17 -2 13 -5z m-5243 -58 c-3 -15 -8 -25
-11 -23 -2 3 -1 17 3 31 3 15 8 25 11 23 2 -3 1 -17 -3 -31z m5735 -46 c0 -9
-4 -8 -9 5 -5 11 -9 27 -9 35 0 9 4 8 9 -5 5 -11 9 -27 9 -35z m-5763 -46 c-8
-27 -15 -43 -15 -35 -1 18 21 92 26 87 2 -2 -2 -26 -11 -52z m5771 4 c-3 -8
-6 -5 -6 6 -1 11 2 17 5 13 3 -3 4 -12 1 -19z m10 -40 c-3 -8 -6 -5 -6 6 -1
11 2 17 5 13 3 -3 4 -12 1 -19z m-4474 -5 c-23 -2 -64 -2 -90 0 -26 2 -7 3 42
3 50 0 71 -1 48 -3z m1080 0 c-23 -2 -64 -2 -90 0 -26 2 -7 3 42 3 50 0 71 -1
48 -3z m1090 0 c-23 -2 -64 -2 -90 0 -26 2 -7 3 42 3 50 0 71 -1 48 -3z m1080
0 c-23 -2 -64 -2 -90 0 -26 2 -7 3 42 3 50 0 71 -1 48 -3z m-3396 -9 c-3 -3
-12 -4 -19 -1 -8 3 -5 6 6 6 11 1 17 -2 13 -5z m243 -4 c11 -8 7 -9 -15 -4
-37 8 -45 14 -19 14 10 0 26 -5 34 -10z m795 -10 c-27 -11 -52 -20 -55 -19
-11 2 76 38 90 38 8 0 -7 -9 -35 -19z m323 -5 c29 -13 68 -36 86 -50 34 -26
116 -125 116 -139 0 -5 -20 18 -44 51 -59 78 -118 119 -211 149 -22 7 -31 13
-20 13 11 1 44 -10 73 -24z m777 11 c-93 -29 -170 -86 -217 -158 -36 -55 -46
-63 -22 -16 40 77 195 189 259 187 11 0 2 -6 -20 -13z m280 -1 c39 -17 21 -18
-25 0 -19 7 -28 14 -20 14 8 0 29 -6 45 -14z m834 11 c-2 -2 -17 -6 -34 -10
-22 -5 -26 -4 -15 4 14 9 59 15 49 6z m218 -2 c-3 -3 -12 -4 -19 -1 -8 3 -5 6
6 6 11 1 17 -2 13 -5z m-4653 -43 c-4 -17 -9 -30 -11 -27 -3 2 -2 19 2 36 9
41 17 33 9 -9z m1136 29 c-8 -5 -19 -10 -25 -10 -5 0 -3 5 5 10 8 5 20 10 25
10 6 0 3 -5 -5 -10z m3560 0 c8 -5 11 -10 5 -10 -5 0 -17 5 -25 10 -8 5 -10
10 -5 10 6 0 17 -5 25 -10z m1117 -12 c-3 -8 -6 -5 -6 6 -1 11 2 17 5 13 3 -3
4 -12 1 -19z m-4305 -17 c25 -16 64 -48 87 -72 45 -48 101 -150 100 -183 0
-12 -6 -3 -14 21 -29 95 -100 182 -190 234 -27 16 -45 29 -39 29 5 0 31 -13
56 -29z m2813 0 c-64 -37 -119 -92 -156 -156 -16 -27 -29 -45 -29 -39 0 17 54
96 91 133 37 37 116 91 133 91 6 0 -11 -13 -39 -29z m-3271 -15 c-66 -45 -110
-96 -145 -170 -16 -34 -29 -55 -29 -48 0 22 49 110 82 148 35 40 116 103 133
104 5 0 -13 -15 -41 -34z m2714 -61 c44 -49 92 -135 92 -165 0 -8 -11 11 -24
43 -30 73 -87 142 -148 180 -59 37 -63 47 -7 15 23 -13 62 -45 87 -73z m977
85 c3 -6 -1 -7 -9 -4 -18 7 -21 14 -7 14 6 0 13 -4 16 -10z m-2605 -17 c-14
-9 -50 -42 -80 -72 -30 -31 -45 -42 -33 -26 31 44 115 116 133 114 3 0 -6 -7
-20 -16z m2702 -60 c25 -27 51 -60 57 -74 l12 -24 -18 25 c-9 14 -43 51 -75
83 -32 32 -50 53 -40 48 10 -5 38 -31 64 -58z m996 12 c0 -16 -2 -15 -8 5 -11
34 -11 60 0 35 5 -11 8 -29 8 -40z m-5854 -29 c-3 -21 -8 -35 -11 -32 -2 2 -1
20 3 40 3 21 8 35 11 32 2 -2 1 -20 -3 -40z m5863 -28 c-3 -7 -5 -2 -5 12 0
14 2 19 5 13 2 -7 2 -19 0 -25z m-5880 -50 c-3 -7 -5 -2 -5 12 0 14 2 19 5 13
2 -7 2 -19 0 -25z m5890 0 c-3 -7 -5 -2 -5 12 0 14 2 19 5 13 2 -7 2 -19 0
-25z m-3871 -32 c-11 -30 -22 -50 -24 -46 -4 10 34 100 41 100 2 0 -5 -24 -17
-54z m2953 -36 c0 -8 -6 0 -14 19 -8 18 -15 36 -15 40 1 13 29 -45 29 -59z
m-4982 13 c-3 -10 -5 -4 -5 12 0 17 2 24 5 18 2 -7 2 -21 0 -30z m2813 2 c0
-5 -5 -3 -10 5 -5 8 -10 20 -10 25 0 6 5 3 10 -5 5 -8 10 -19 10 -25z m3097
-2 c-3 -10 -5 -4 -5 12 0 17 2 24 5 18 2 -7 2 -21 0 -30z m-1736 -29 c-5 -16
-10 -21 -10 -12 -1 18 10 51 15 45 2 -1 -1 -16 -5 -33z m-1354 -6 c-3 -8 -6
-5 -6 6 -1 11 2 17 5 13 3 -3 4 -12 1 -19z m270 0 c-3 -8 -6 -5 -6 6 -1 11 2
17 5 13 3 -3 4 -12 1 -19z m-3100 -25 c-3 -10 -5 -4 -5 12 0 17 2 24 5 18 2
-7 2 -21 0 -30z m5930 0 c-3 -10 -5 -4 -5 12 0 17 2 24 5 18 2 -7 2 -21 0 -30z
m-5000 -5 c-3 -7 -5 -2 -5 12 0 14 2 19 5 13 2 -7 2 -19 0 -25z m4070 0 c-3
-7 -5 -2 -5 12 0 14 2 19 5 13 2 -7 2 -19 0 -25z m-2990 -10 c-3 -7 -5 -2 -5
12 0 14 2 19 5 13 2 -7 2 -19 0 -25z m1910 0 c-3 -7 -5 -2 -5 12 0 14 2 19 5
13 2 -7 2 -19 0 -25z m-1080 -30 c-2 -13 -4 -5 -4 17 -1 22 1 32 4 23 2 -10 2
-28 0 -40z m250 0 c-2 -13 -4 -5 -4 17 -1 22 1 32 4 23 2 -10 2 -28 0 -40z
m-1330 -70 c-2 -24 -4 -7 -4 37 0 44 2 63 4 43 2 -21 2 -57 0 -80z m2410 0
c-2 -24 -4 -7 -4 37 0 44 2 63 4 43 2 -21 2 -57 0 -80z m-4180 45 c-3 -10 -5
-2 -5 17 0 19 2 27 5 18 2 -10 2 -26 0 -35z m930 -35 c-2 -18 -4 -6 -4 27 0
33 2 48 4 33 2 -15 2 -42 0 -60z m4090 0 c-2 -18 -4 -6 -4 27 0 33 2 48 4 33
2 -15 2 -42 0 -60z m930 35 c-3 -10 -5 -4 -5 12 0 17 2 24 5 18 2 -7 2 -21 0
-30z m-3940 -15 c-3 -7 -5 -2 -5 12 0 14 2 19 5 13 2 -7 2 -19 0 -25z m1930 0
c-3 -8 -6 -5 -6 6 -1 11 2 17 5 13 3 -3 4 -12 1 -19z m-3950 -70 c-2 -13 -4
-5 -4 17 -1 22 1 32 4 23 2 -10 2 -28 0 -40z m2853 -28 l-11 -25 6 25 c2 14 6
39 6 55 l2 30 4 -30 c2 -17 -1 -42 -7 -55z m257 33 c-3 -10 -5 -2 -5 17 0 19
2 27 5 18 2 -10 2 -26 0 -35z m2860 -5 c-2 -13 -4 -5 -4 17 -1 22 1 32 4 23 2
-10 2 -28 0 -40z m-3934 -23 c5 -28 4 -34 -3 -20 -8 19 -14 73 -6 64 2 -2 6
-22 9 -44z m1904 13 c-3 -7 -5 -2 -5 12 0 14 2 19 5 13 2 -7 2 -19 0 -25z
m-2990 -10 c-3 -7 -5 -2 -5 12 0 14 2 19 5 13 2 -7 2 -19 0 -25z m4070 0 c-3
-8 -6 -5 -6 6 -1 11 2 17 5 13 3 -3 4 -12 1 -19z m-3276 -83 c-33 -71 -110
-159 -163 -188 -32 -17 -32 -17 -8 0 67 48 122 111 155 176 19 38 36 79 36 91
1 17 2 18 6 3 3 -10 -9 -47 -26 -82z m2511 -46 c25 -43 83 -103 138 -142 24
-17 24 -17 -8 0 -77 41 -193 203 -192 268 1 11 8 -3 18 -30 10 -28 29 -71 44
-96z m-1135 109 c-3 -8 -6 -5 -6 6 -1 11 2 17 5 13 3 -3 4 -12 1 -19z m810
-10 c-3 -8 -6 -5 -6 6 -1 11 2 17 5 13 3 -3 4 -12 1 -19z m-3940 -65 c-2 -16
-4 -3 -4 27 0 30 2 43 4 28 2 -16 2 -40 0 -55z m982 32 c0 -5 -4 -3 -9 5 -5 8
-9 22 -9 30 0 16 17 -16 18 -35z m4036 18 c-3 -16 -10 -32 -15 -37 -5 -5 -4 7
2 27 13 43 23 50 13 10z m972 -50 c-2 -16 -4 -3 -4 27 0 30 2 43 4 28 2 -16 2
-40 0 -55z m-2830 5 c7 -16 11 -28 9 -28 -8 0 -36 58 -35 72 0 9 2 8 6 -2 3
-8 12 -27 20 -42z m-1027 -86 c32 -43 108 -99 168 -123 30 -13 36 -18 17 -14
-44 9 -112 52 -161 100 -40 41 -104 139 -104 160 0 6 13 -12 28 -40 15 -27 39
-65 52 -83z m1776 70 c-44 -87 -157 -186 -236 -206 -14 -4 3 7 38 24 77 38
159 119 191 189 14 28 26 49 28 47 3 -2 -7 -26 -21 -54z m-1089 -14 c-59 -100
-183 -192 -273 -204 -32 -4 -29 -2 16 11 30 9 73 26 95 39 51 30 139 123 162
170 9 20 19 34 21 31 2 -2 -7 -23 -21 -47z m-1823 26 c3 -8 2 -12 -4 -9 -6 3
-10 10 -10 16 0 14 7 11 14 -7z m3967 -57 c-46 -68 -162 -159 -198 -157 -4 1
10 10 32 22 61 31 118 81 156 136 19 28 36 49 37 47 2 -2 -10 -24 -27 -48z
m-3880 -59 c27 -26 70 -58 96 -72 26 -14 44 -25 40 -26 -37 -2 -170 105 -200
161 -16 30 -16 31 0 9 9 -14 38 -46 64 -72z m2289 -87 c30 -12 42 -19 25 -16
-16 4 -48 17 -70 30 -41 24 -130 107 -145 136 -5 9 23 -17 63 -56 51 -51 88
-78 127 -94z m-3383 -173 c-1 -57 -3 -11 -3 102 0 113 2 159 3 103 2 -57 2
-149 0 -205z m6010 -6 c-1 -53 -3 -7 -3 103 0 110 2 154 3 97 2 -57 2 -147 0
-200z m-4467 173 c-14 -8 -32 -14 -40 -14 -8 0 -1 6 15 14 40 18 57 18 25 0z
m2941 0 c19 -8 27 -14 19 -14 -14 0 -72 28 -59 29 4 0 22 -7 40 -15z m-3168
-22 c-7 -2 -21 -2 -30 0 -10 3 -4 5 12 5 17 0 24 -2 18 -5z m160 0 c-7 -2 -19
-2 -25 0 -7 3 -2 5 12 5 14 0 19 -2 13 -5z m920 0 c-7 -2 -19 -2 -25 0 -7 3
-2 5 12 5 14 0 19 -2 13 -5z m1080 0 c-7 -2 -19 -2 -25 0 -7 3 -2 5 12 5 14 0
19 -2 13 -5z m170 0 c-7 -2 -21 -2 -30 0 -10 3 -4 5 12 5 17 0 24 -2 18 -5z
m910 0 c-7 -2 -19 -2 -25 0 -7 3 -2 5 12 5 14 0 19 -2 13 -5z m170 0 c-7 -2
-21 -2 -30 0 -10 3 -4 5 12 5 17 0 24 -2 18 -5z m-3315 -10 c-16 -2 -40 -2
-55 0 -16 2 -3 4 27 4 30 0 43 -2 28 -4z m1075 0 c-13 -2 -35 -2 -50 0 -16 2
-5 4 22 4 28 0 40 -2 28 -4z m1085 0 c-16 -2 -40 -2 -55 0 -16 2 -3 4 27 4 30
0 43 -2 28 -4z m1080 0 c-16 -2 -40 -2 -55 0 -16 2 -3 4 27 4 30 0 43 -2 28
-4z m-3230 -150 c-21 -2 -57 -2 -80 0 -24 2 -7 4 37 4 44 0 63 -2 43 -4z
m1080 0 c-21 -2 -55 -2 -75 0 -21 2 -4 4 37 4 41 0 58 -2 38 -4z m1080 0 c-21
-2 -55 -2 -75 0 -21 2 -4 4 37 4 41 0 58 -2 38 -4z m1090 0 c-21 -2 -57 -2
-80 0 -24 2 -7 4 37 4 44 0 63 -2 43 -4z m-3381 -9 c-3 -3 -12 -4 -19 -1 -8 3
-5 6 6 6 11 1 17 -2 13 -5z m232 -5 c48 -17 32 -20 -19 -4 -25 7 -38 14 -29
14 9 1 30 -4 48 -10z m854 4 c-7 -2 -19 -2 -25 0 -7 3 -2 5 12 5 14 0 19 -2
13 -5z m200 0 c-7 -2 -19 -2 -25 0 -7 3 -2 5 12 5 14 0 19 -2 13 -5z m867 -3
c-34 -11 -60 -11 -35 0 11 5 29 8 40 8 16 0 15 -2 -5 -8z m213 3 c-7 -2 -19
-2 -25 0 -7 3 -2 5 12 5 14 0 19 -2 13 -5z m847 -9 c-56 -17 -64 -17 -25 1 17
8 39 14 50 14 11 0 0 -7 -25 -15z m237 10 c-3 -3 -12 -4 -19 -1 -8 3 -5 6 6 6
11 1 17 -2 13 -5z m63 -19 c33 -19 21 -19 -21 0 -19 8 -27 14 -19 14 8 0 26
-6 40 -14z m-3630 -26 c-72 -39 -123 -90 -157 -155 -15 -29 -29 -51 -31 -49
-8 8 43 90 81 132 39 42 129 103 152 103 6 0 -15 -14 -45 -31z m1074 -5 c-76
-46 -87 -56 -135 -127 -21 -33 -39 -55 -39 -49 0 18 86 126 121 153 38 29 89
58 103 59 6 0 -17 -16 -50 -36z m437 7 c68 -43 128 -110 160 -176 16 -33 29
-67 28 -75 0 -8 -6 1 -14 21 -37 100 -105 182 -195 233 -25 14 -40 26 -34 26
5 0 30 -13 55 -29z m659 3 c-64 -36 -144 -118 -170 -175 -13 -27 -25 -47 -27
-45 -10 9 49 105 89 145 44 45 124 101 142 101 6 0 -9 -12 -34 -26z m437 -13
c82 -53 175 -179 172 -233 0 -7 -9 10 -19 37 -30 76 -97 154 -171 198 -35 20
-59 37 -53 37 6 0 38 -18 71 -39z m-2169 5 c45 -29 124 -112 146 -154 26 -50
18 -51 -10 -2 -32 58 -87 114 -144 151 -25 16 -42 29 -37 29 4 0 24 -11 45
-24z m2792 -5 c-57 -37 -112 -93 -144 -151 -14 -25 -26 -40 -26 -34 0 44 161
212 205 213 6 0 -10 -12 -35 -28z m537 -65 c41 -46 84 -114 83 -133 -1 -4 -12
14 -26 40 -25 48 -96 127 -144 160 -22 16 -21 16 9 0 18 -10 53 -40 78 -67z
m1060 -98 c-2 -18 -4 -4 -4 32 0 36 2 50 4 33 2 -18 2 -48 0 -65z m-5990 0
c-2 -18 -4 -6 -4 27 0 33 2 48 4 33 2 -15 2 -42 0 -60z m2054 -59 c-5 -13 -10
-19 -10 -12 -1 15 10 45 15 40 3 -2 0 -15 -5 -28z m-2044 -61 c-2 -13 -4 -3
-4 22 0 25 2 35 4 23 2 -13 2 -33 0 -45z m3120 40 c-3 -8 -6 -5 -6 6 -1 11 2
17 5 13 3 -3 4 -12 1 -19z m2850 -45 c-2 -16 -4 -5 -4 22 0 28 2 40 4 28 2
-13 2 -35 0 -50z m-4200 35 c-3 -8 -6 -5 -6 6 -1 11 2 17 5 13 3 -3 4 -12 1
-19z m2430 0 c-3 -8 -6 -5 -6 6 -1 11 2 17 5 13 3 -3 4 -12 1 -19z m-3250 -20
c-3 -7 -5 -2 -5 12 0 14 2 19 5 13 2 -7 2 -19 0 -25z m4070 0 c-3 -7 -5 -2 -5
12 0 14 2 19 5 13 2 -7 2 -19 0 -25z m-2990 -15 c-3 -10 -5 -4 -5 12 0 17 2
24 5 18 2 -7 2 -21 0 -30z m1910 5 c-3 -7 -5 -2 -5 12 0 14 2 19 5 13 2 -7 2
-19 0 -25z m-1080 -25 c-3 -10 -5 -2 -5 17 0 19 2 27 5 18 2 -10 2 -26 0 -35z
m250 0 c-3 -10 -5 -2 -5 17 0 19 2 27 5 18 2 -10 2 -26 0 -35z m-1330 -75 c-2
-24 -4 -7 -4 37 0 44 2 63 4 43 2 -21 2 -57 0 -80z m2410 0 c-2 -24 -4 -7 -4
37 0 44 2 63 4 43 2 -21 2 -57 0 -80z m-3250 10 c-2 -18 -4 -6 -4 27 0 33 2
48 4 33 2 -15 2 -42 0 -60z m4090 0 c-2 -18 -4 -6 -4 27 0 33 2 48 4 33 2 -15
2 -42 0 -60z m-5020 0 c-2 -13 -4 -5 -4 17 -1 22 1 32 4 23 2 -10 2 -28 0 -40z
m3940 30 c-3 -8 -6 -5 -6 6 -1 11 2 17 5 13 3 -3 4 -12 1 -19z m2010 -30 c-2
-13 -4 -5 -4 17 -1 22 1 32 4 23 2 -10 2 -28 0 -40z m-3940 20 c-3 -8 -6 -5
-6 6 -1 11 2 17 5 13 3 -3 4 -12 1 -19z m840 -70 c-2 -13 -4 -5 -4 17 -1 22 1
32 4 23 2 -10 2 -28 0 -40z m250 -5 c-3 -10 -5 -2 -5 17 0 19 2 27 5 18 2 -10
2 -26 0 -35z m-1074 -18 c5 -28 4 -34 -3 -20 -8 19 -14 73 -6 64 2 -2 6 -22 9
-44z m1897 -15 l-11 -25 6 25 c2 14 5 34 6 45 2 19 2 19 6 0 2 -12 -1 -32 -7
-45z m2017 8 c-2 -13 -4 -5 -4 17 -1 22 1 32 4 23 2 -10 2 -28 0 -40z m-5930
-5 c-3 -10 -5 -2 -5 17 0 19 2 27 5 18 2 -10 2 -26 0 -35z m975 -98 c26 -49
87 -114 142 -151 28 -19 47 -34 43 -34 -18 0 -97 62 -137 107 -47 52 -87 130
-95 184 -4 23 0 16 13 -21 10 -30 26 -68 34 -85z m4025 113 c-3 -8 -6 -5 -6 6
-1 11 2 17 5 13 3 -3 4 -12 1 -19z m-3252 -28 c-9 -41 -17 -33 -9 9 4 17 9 30
11 27 3 -2 2 -19 -2 -36z m2461 -68 c-6 -5 -36 77 -36 96 1 9 9 -8 20 -38 10
-30 17 -56 16 -58z m-1386 51 c-11 -17 -11 -17 -6 0 3 10 6 24 7 30 0 9 2 9 5
0 3 -7 0 -20 -6 -30z m353 -120 c38 -52 77 -85 142 -120 50 -28 38 -30 -15 -3
-60 30 -143 120 -179 190 -17 35 -31 70 -31 79 0 9 11 -10 24 -41 13 -31 39
-78 59 -105z m1803 92 c-10 -24 -21 -47 -25 -50 -5 -2 1 20 13 49 12 30 23 52
25 50 2 -2 -4 -24 -13 -49z m-4969 -12 c-3 -10 -5 -4 -5 12 0 17 2 24 5 18 2
-7 2 -21 0 -30z m2033 2 c0 -5 -5 -3 -10 5 -5 8 -10 20 -10 25 0 6 5 3 10 -5
5 -8 10 -19 10 -25z m3877 -2 c-3 -10 -5 -4 -5 12 0 17 2 24 5 18 2 -7 2 -21
0 -30z m-4196 -6 c-10 -9 -11 -8 -5 6 3 10 9 15 12 12 3 -3 0 -11 -7 -18z
m1063 -34 c-45 -78 -169 -185 -211 -183 -4 1 13 12 39 25 59 31 136 108 168
168 13 25 26 44 28 42 3 -2 -8 -26 -24 -52z m-682 -53 c20 -26 59 -62 87 -81
58 -37 66 -47 19 -23 -43 22 -132 113 -152 155 -9 19 -11 26 -4 15 7 -10 30
-40 50 -66z m1762 48 c-22 -43 -113 -132 -155 -152 -19 -9 -26 -11 -15 -4 66
45 118 93 147 137 37 58 47 66 23 19z m-3847 -15 c-3 -10 -5 -4 -5 12 0 17 2
24 5 18 2 -7 2 -21 0 -30z m1683 17 c-6 -11 -13 -20 -16 -20 -2 0 0 9 6 20 6
11 13 20 16 20 2 0 0 -9 -6 -20z m2530 0 c6 -11 8 -20 6 -20 -3 0 -10 9 -16
20 -6 11 -8 20 -6 20 3 0 10 -9 16 -20z m1677 -27 c-3 -10 -5 -2 -5 17 0 19 2
27 5 18 2 -10 2 -26 0 -35z m-987 -12 c-51 -73 -157 -144 -230 -156 -23 -4
-16 1 21 13 70 24 138 70 186 127 43 51 54 59 23 16z m-3258 -16 c-25 -32 -98
-92 -133 -111 -50 -25 -45 -15 6 15 28 16 70 50 95 75 49 51 62 59 32 21z
m2728 -99 c25 -14 40 -26 34 -26 -10 0 -88 49 -114 72 -8 8 -28 29 -45 48 -16
19 -5 12 25 -17 30 -28 75 -63 100 -77z m-4363 77 c-3 -10 -5 -4 -5 12 0 17 2
24 5 18 2 -7 2 -21 0 -30z m5870 -5 c-3 -7 -5 -2 -5 12 0 14 2 19 5 13 2 -7 2
-19 0 -25z m-5860 -50 c-3 -7 -5 -2 -5 12 0 14 2 19 5 13 2 -7 2 -19 0 -25z
m5850 0 c-3 -7 -5 -2 -5 12 0 14 2 19 5 13 2 -7 2 -19 0 -25z m-5840 -50 c-3
-7 -5 -2 -5 12 0 14 2 19 5 13 2 -7 2 -19 0 -25z m5830 0 c-3 -7 -5 -2 -5 12
0 14 2 19 5 13 2 -7 2 -19 0 -25z m-4657 -2 c25 -8 36 -15 25 -15 -11 0 -33 6
-50 14 -39 18 -31 18 25 1z m1080 0 c25 -8 36 -15 25 -15 -11 0 -33 6 -50 14
-39 18 -31 18 25 1z m1360 4 c-8 -5 -22 -9 -30 -9 -10 0 -8 3 5 9 27 12 43 12
25 0z m830 -10 c20 -6 21 -8 5 -8 -11 0 -29 3 -40 8 -25 11 1 11 35 0z m-3047
-7 c-7 -2 -19 -2 -25 0 -7 3 -2 5 12 5 14 0 19 -2 13 -5z m1080 0 c-7 -2 -19
-2 -25 0 -7 3 -2 5 12 5 14 0 19 -2 13 -5z m900 0 c-7 -2 -19 -2 -25 0 -7 3
-2 5 12 5 14 0 19 -2 13 -5z m180 0 c-7 -2 -19 -2 -25 0 -7 3 -2 5 12 5 14 0
19 -2 13 -5z m-3546 -25 c-3 -8 -6 -5 -6 6 -1 11 2 17 5 13 3 -3 4 -12 1 -19z
m1316 15 c-18 -2 -48 -2 -65 0 -18 2 -4 4 32 4 36 0 50 -2 33 -4z m1080 0
c-18 -2 -48 -2 -65 0 -18 2 -4 4 32 4 36 0 50 -2 33 -4z m1080 0 c-18 -2 -48
-2 -65 0 -18 2 -4 4 32 4 36 0 50 -2 33 -4z m1084 0 c-20 -2 -52 -2 -70 0 -17
2 0 4 38 4 39 0 53 -2 32 -4z m1247 -37 c-3 -21 -8 -35 -11 -32 -2 2 -1 20 3
40 3 21 8 35 11 32 2 -2 1 -20 -3 -40z m-5797 -28 c-3 -7 -5 -2 -5 12 0 14 2
19 5 13 2 -7 2 -19 0 -25z m10 -40 c-3 -8 -6 -5 -6 6 -1 11 2 17 5 13 3 -3 4
-12 1 -19z m5770 0 c-3 -8 -6 -5 -6 6 -1 11 2 17 5 13 3 -3 4 -12 1 -19z
m-5760 -40 c-3 -8 -6 -5 -6 6 -1 11 2 17 5 13 3 -3 4 -12 1 -19z m5750 0 c-3
-8 -6 -5 -6 6 -1 11 2 17 5 13 3 -3 4 -12 1 -19z m-4469 -5 c-15 -2 -42 -2
-60 0 -18 2 -6 4 27 4 33 0 48 -2 33 -4z m1085 0 c-18 -2 -48 -2 -65 0 -18 2
-4 4 32 4 36 0 50 -2 33 -4z m1085 0 c-15 -2 -42 -2 -60 0 -18 2 -6 4 27 4 33
0 48 -2 33 -4z m1080 0 c-15 -2 -42 -2 -60 0 -18 2 -6 4 27 4 33 0 48 -2 33
-4z m-3398 -19 c-56 -17 -64 -17 -25 1 17 8 39 14 50 14 11 0 0 -7 -25 -15z
m223 9 c-7 -2 -19 -2 -25 0 -7 3 -2 5 12 5 14 0 19 -2 13 -5z m900 0 c-7 -2
-19 -2 -25 0 -7 3 -2 5 12 5 14 0 19 -2 13 -5z m180 0 c-7 -2 -19 -2 -25 0 -7
3 -2 5 12 5 14 0 19 -2 13 -5z m900 0 c-7 -2 -19 -2 -25 0 -7 3 -2 5 12 5 14
0 19 -2 13 -5z m180 0 c-7 -2 -19 -2 -25 0 -7 3 -2 5 12 5 14 0 19 -2 13 -5z
m900 0 c-7 -2 -19 -2 -25 0 -7 3 -2 5 12 5 14 0 19 -2 13 -5z m180 0 c-7 -2
-19 -2 -25 0 -7 3 -2 5 12 5 14 0 19 -2 13 -5z m-4586 -25 c-3 -8 -6 -5 -6 6
-1 11 2 17 5 13 3 -3 4 -12 1 -19z m2188 12 c-27 -12 -43 -12 -25 0 8 5 22 9
30 9 10 0 8 -3 -5 -9z m305 -5 c33 -19 21 -19 -21 0 -19 8 -27 14 -19 14 8 0
26 -6 40 -14z m761 0 c-18 -8 -36 -15 -40 -15 -13 1 45 29 59 29 8 0 0 -6 -19
-14z m309 5 c18 -12 2 -12 -25 0 -13 6 -15 9 -5 9 8 0 22 -4 30 -9z m1108 -10
c23 -10 42 -21 42 -24 0 -3 -19 3 -42 13 -24 10 -50 21 -58 24 -13 5 -13 5 0
6 8 0 34 -8 58 -19z m1059 -2 c-3 -8 -6 -5 -6 6 -1 11 2 17 5 13 3 -3 4 -12 1
-19z m-4272 -17 c53 -30 125 -101 144 -142 11 -24 11 -24 -6 1 -42 59 -97 109
-150 138 -32 17 -53 32 -48 32 6 0 33 -13 60 -29z m2825 -2 c-67 -36 -102 -69
-146 -134 -19 -27 -34 -46 -34 -42 0 14 57 91 92 124 34 32 115 83 133 83 6 0
-15 -14 -45 -31z m-3280 -20 c-69 -47 -120 -109 -149 -184 -11 -27 -20 -44
-20 -37 -1 21 26 79 59 128 30 43 140 134 162 134 6 0 -18 -19 -52 -41z m2605
31 c3 -6 -1 -7 -9 -4 -18 7 -21 14 -7 14 6 0 13 -4 16 -10z m-1485 -5 c0 -2
-12 -11 -27 -19 -44 -22 -114 -99 -144 -158 -16 -29 -28 -49 -29 -45 -1 20 52
107 89 145 45 46 111 92 111 77z m488 -59 c45 -40 102 -120 102 -140 0 -6 -13
12 -29 39 -27 47 -85 108 -141 148 -25 17 -25 17 -1 6 13 -6 44 -30 69 -53z
m572 46 c-81 -55 -132 -116 -166 -201 -13 -31 -24 -49 -24 -41 0 28 48 118 87
161 36 41 109 100 122 98 3 0 -5 -8 -19 -17z m-3161 -42 c0 -9 -4 -8 -9 5 -5
11 -9 27 -9 35 0 9 4 8 9 -5 5 -11 9 -27 9 -35z m3684 -16 c43 -42 86 -104 73
-104 -3 0 -12 13 -20 28 -13 26 -75 91 -121 127 l-20 16 20 -10 c11 -5 42 -30
68 -57z m2011 32 c-3 -15 -8 -25 -11 -23 -2 3 -1 17 3 31 3 15 8 25 11 23 2
-3 1 -17 -3 -31z m-888 -78 c37 -50 74 -135 73 -166 0 -9 -8 9 -19 41 -23 72
-59 129 -119 186 -41 39 -42 41 -8 16 20 -15 53 -50 73 -77z m-4750 -125 c-5
-5 -46 116 -45 131 0 6 11 -20 25 -58 13 -38 22 -71 20 -73z m5589 47 c-15
-45 -29 -80 -31 -78 -2 2 9 41 23 86 15 45 29 80 31 77 2 -2 -8 -40 -23 -85z
m-1865 -25 c0 -5 -5 -3 -10 5 -5 8 -10 20 -10 25 0 6 5 3 10 -5 5 -8 10 -19
10 -25z m-2151 -45 c0 -8 -7 1 -14 20 -18 46 -17 64 0 25 8 -16 14 -37 14 -45z
m2436 20 c-7 -25 -14 -38 -14 -29 -1 18 20 82 25 77 2 -2 -3 -24 -11 -48z
m-1356 -10 c0 -10 -3 -8 -9 5 -12 27 -12 43 0 25 5 -8 9 -22 9 -30z m-818 -26
c-5 -21 -9 -30 -10 -19 -1 24 10 67 15 62 3 -2 0 -22 -5 -43z m1908 -13 c1
-35 -5 -22 -12 24 -5 28 -4 34 3 20 5 -11 9 -31 9 -44z m-2992 -3 c-3 -7 -5
-2 -5 12 0 14 2 19 5 13 2 -7 2 -19 0 -25z m1910 -40 c-2 -13 -4 -3 -4 22 0
25 2 35 4 23 2 -13 2 -33 0 -45z m250 10 c-2 -13 -4 -5 -4 17 -1 22 1 32 4 23
2 -10 2 -28 0 -40z m-2877 7 c0 -5 -5 -3 -10 5 -5 8 -10 20 -10 25 0 6 5 3 10
-5 5 -8 10 -19 10 -25z m1547 -98 c-2 -23 -3 -1 -3 48 0 50 1 68 3 42 2 -26 2
-67 0 -90z m3964 106 c-12 -20 -14 -14 -5 12 4 9 9 14 11 11 3 -2 0 -13 -6
-23z m-1554 -105 c-2 -24 -4 -5 -4 42 0 47 2 66 4 43 2 -24 2 -62 0 -85z
m-3250 20 c-2 -18 -4 -6 -4 27 0 33 2 48 4 33 2 -15 2 -42 0 -60z m4090 -10
c-2 -18 -4 -4 -4 32 0 36 2 50 4 33 2 -18 2 -48 0 -65z m-4761 -15 c-4 -4 -36
73 -35 85 0 4 9 -13 20 -37 11 -24 18 -46 15 -48z m5448 38 c-9 -23 -18 -40
-20 -38 -2 2 4 22 13 45 9 23 18 40 20 38 2 -2 -4 -22 -13 -45z m-3697 7 c-3
-8 -6 -5 -6 6 -1 11 2 17 5 13 3 -3 4 -12 1 -19z m840 -70 c-2 -13 -4 -5 -4
17 -1 22 1 32 4 23 2 -10 2 -28 0 -40z m250 0 c-2 -13 -4 -5 -4 17 -1 22 1 32
4 23 2 -10 2 -28 0 -40z m-1080 -15 c-3 -10 -5 -4 -5 12 0 17 2 24 5 18 2 -7
2 -21 0 -30z m1910 0 c-3 -10 -5 -4 -5 12 0 17 2 24 5 18 2 -7 2 -21 0 -30z
m-3628 -48 c0 -5 -8 6 -19 25 -11 19 -19 40 -19 45 0 6 8 -6 19 -25 11 -19 19
-39 19 -45z m638 38 c-3 -10 -5 -4 -5 12 0 17 2 24 5 18 2 -7 2 -21 0 -30z
m4719 -20 c-14 -26 -25 -45 -26 -41 0 12 43 98 48 94 2 -2 -8 -26 -22 -53z
m-649 15 c-3 -7 -5 -2 -5 12 0 14 2 19 5 13 2 -7 2 -19 0 -25z m-3250 -10 c-3
-8 -6 -5 -6 6 -1 11 2 17 5 13 3 -3 4 -12 1 -19z m2430 0 c-3 -8 -6 -5 -6 6
-1 11 2 17 5 13 3 -3 4 -12 1 -19z m-1375 -71 c-35 -75 -113 -157 -182 -192
-27 -14 -55 -25 -61 -25 -7 0 16 14 49 31 34 17 83 51 108 77 43 43 103 147
105 182 0 10 2 11 6 2 2 -7 -9 -41 -25 -75z m336 -23 c11 -21 35 -54 52 -73
17 -18 29 -35 27 -37 -16 -16 -128 168 -126 206 0 8 6 -1 14 -21 7 -19 22 -53
33 -75z m-1109 51 c0 -5 -4 -3 -9 5 -5 8 -9 22 -9 30 0 16 17 -16 18 -35z
m1855 -33 c-15 -31 -52 -81 -80 -110 -53 -53 -160 -113 -199 -111 -11 0 -2 6
20 13 99 31 173 87 226 169 21 32 41 72 45 90 4 18 9 26 11 19 3 -7 -8 -39
-23 -70z m-2840 -110 c23 -20 52 -45 66 -55 25 -17 25 -17 1 -6 -58 28 -171
163 -171 204 0 6 15 -16 32 -48 17 -31 50 -74 72 -95z m3916 99 c-11 -23 -37
-60 -57 -82 -36 -40 -114 -99 -130 -99 -4 0 15 15 43 34 61 41 108 94 137 152
11 24 22 42 25 40 2 -2 -6 -23 -18 -45z m-3253 -13 c-41 -71 -163 -178 -201
-178 -6 0 12 13 39 29 58 33 137 114 162 165 9 20 19 34 21 31 2 -2 -7 -23
-21 -47z m2576 -76 c23 -24 65 -57 92 -73 28 -16 45 -29 39 -29 -17 0 -96 54
-133 91 -37 37 -91 117 -91 133 0 6 12 -9 26 -34 14 -25 44 -65 67 -88z
m-3949 61 c14 -29 24 -53 21 -53 -5 0 -55 95 -55 106 0 12 6 2 34 -53z m1812
-90 c47 -36 95 -62 149 -79 22 -7 31 -13 20 -13 -30 -1 -124 45 -173 86 -40
33 -112 127 -112 147 0 5 17 -18 38 -50 22 -33 56 -74 78 -91z m3450 88 c-15
-28 -28 -51 -31 -51 -3 0 7 25 22 55 15 30 29 53 31 51 2 -2 -8 -27 -22 -55z
m-5192 -125 c32 -57 46 -71 138 -131 57 -38 108 -72 113 -78 16 -16 -11 0
-118 71 -95 63 -118 87 -161 170 -30 57 -9 34 28 -32z m5136 24 c-11 -22 -23
-40 -25 -40 -3 0 4 18 15 40 11 22 23 40 25 40 3 0 -4 -18 -15 -40z m-2208
-50 c24 -11 36 -20 28 -20 -19 0 -116 55 -126 72 -4 6 6 2 23 -10 18 -12 51
-31 75 -42z m-2137 -10 c28 -10 43 -19 35 -19 -14 0 -101 36 -90 38 3 1 28 -8
55 -19z m3555 0 c-8 -5 -19 -10 -25 -10 -5 0 -3 5 5 10 8 5 20 10 25 10 6 0 3
-5 -5 -10z m751 -9 c-11 -19 -127 -104 -206 -151 -66 -38 -27 -8 83 65 57 38
108 77 113 87 5 10 12 18 15 18 2 0 0 -9 -5 -19z m-4044 -7 c-3 -3 -12 -4 -19
-1 -8 3 -5 6 6 6 11 1 17 -2 13 -5z m1080 0 c-3 -3 -12 -4 -19 -1 -8 3 -5 6 6
6 11 1 17 -2 13 -5z m870 0 c-3 -3 -12 -4 -19 -1 -8 3 -5 6 6 6 11 1 17 -2 13
-5z m1080 0 c-3 -3 -12 -4 -19 -1 -8 3 -5 6 6 6 11 1 17 -2 13 -5z m216 -1
c-7 -2 -19 -2 -25 0 -7 3 -2 5 12 5 14 0 19 -2 13 -5z m-3320 -10 c-24 -2 -62
-2 -85 0 -24 2 -5 4 42 4 47 0 66 -2 43 -4z m1080 0 c-24 -2 -62 -2 -85 0 -24
2 -5 4 42 4 47 0 66 -2 43 -4z m1080 0 c-24 -2 -62 -2 -85 0 -24 2 -5 4 42 4
47 0 66 -2 43 -4z m1080 0 c-24 -2 -62 -2 -85 0 -24 2 -5 4 42 4 47 0 66 -2
43 -4z m-3718 -280 c77 -40 137 -73 132 -73 -21 0 -367 185 -367 197 0 3 21
-8 48 -23 26 -16 110 -61 187 -101z m4345 123 c0 -11 -328 -186 -347 -186 -5
0 55 33 132 73 77 41 156 83 175 95 37 23 40 24 40 18z m-4087 -240 c53 -22
95 -41 93 -43 -4 -5 -150 53 -185 73 -34 20 -23 16 92 -30z m3686 29 c-37 -20
-181 -76 -185 -72 -4 4 185 84 201 85 6 1 -2 -5 -16 -13z m-3474 -111 c24 -11
25 -13 5 -8 -14 4 -38 13 -55 20 -24 11 -25 13 -5 8 14 -4 39 -13 55 -20z
m3245 22 c0 -6 -93 -37 -97 -32 -2 2 15 11 39 19 47 17 58 19 58 13z m-3135
-56 c13 -5 14 -9 5 -9 -8 0 -24 4 -35 9 -13 5 -14 9 -5 9 8 0 24 -4 35 -9z
m2965 -5 c-19 -7 -42 -13 -50 -13 -8 0 1 6 20 13 19 7 42 13 50 13 8 0 -1 -6
-20 -13z m-2853 -31 c-3 -3 -12 -4 -19 -1 -8 3 -5 6 6 6 11 1 17 -2 13 -5z
m2750 0 c-3 -3 -12 -4 -19 -1 -8 3 -5 6 6 6 11 1 17 -2 13 -5z m-2710 -10 c-3
-3 -12 -4 -19 -1 -8 3 -5 6 6 6 11 1 17 -2 13 -5z m2670 0 c-3 -3 -12 -4 -19
-1 -8 3 -5 6 6 6 11 1 17 -2 13 -5z m-2592 -18 c28 -8 41 -14 30 -14 -21 0
-107 25 -90 27 6 0 33 -6 60 -13z m2540 4 c-11 -5 -27 -9 -35 -9 -9 0 -8 4 5
9 11 5 27 9 35 9 9 0 8 -4 -5 -9z m-62 -17 c-7 -2 -19 -2 -25 0 -7 3 -2 5 12
5 14 0 19 -2 13 -5z m-2363 -13 c20 -6 21 -8 5 -8 -11 0 -31 4 -45 8 -20 6
-21 8 -5 8 11 0 31 -4 45 -8z m2317 4 c-3 -3 -12 -4 -19 -1 -8 3 -5 6 6 6 11
1 17 -2 13 -5z m-44 -11 c-7 -2 -19 -2 -25 0 -7 3 -2 5 12 5 14 0 19 -2 13 -5z
m-2210 -10 c-7 -2 -19 -2 -25 0 -7 3 -2 5 12 5 14 0 19 -2 13 -5z m2160 0 c-7
-2 -19 -2 -25 0 -7 3 -2 5 12 5 14 0 19 -2 13 -5z m-2110 -10 c-7 -2 -19 -2
-25 0 -7 3 -2 5 12 5 14 0 19 -2 13 -5z m2060 0 c-7 -2 -19 -2 -25 0 -7 3 -2
5 12 5 14 0 19 -2 13 -5z m-2010 -10 c-7 -2 -19 -2 -25 0 -7 3 -2 5 12 5 14 0
19 -2 13 -5z m1960 0 c-7 -2 -19 -2 -25 0 -7 3 -2 5 12 5 14 0 19 -2 13 -5z
m-1900 -10 c-7 -2 -21 -2 -30 0 -10 3 -4 5 12 5 17 0 24 -2 18 -5z m1850 0
c-7 -2 -21 -2 -30 0 -10 3 -4 5 12 5 17 0 24 -2 18 -5z m-1785 -10 c-10 -2
-26 -2 -35 0 -10 3 -2 5 17 5 19 0 27 -2 18 -5z m1720 0 c-10 -2 -26 -2 -35 0
-10 3 -2 5 17 5 19 0 27 -2 18 -5z m-1655 -10 c-7 -2 -21 -2 -30 0 -10 3 -4 5
12 5 17 0 24 -2 18 -5z m1590 0 c-7 -2 -21 -2 -30 0 -10 3 -4 5 12 5 17 0 24
-2 18 -5z m-1515 -10 c-10 -2 -26 -2 -35 0 -10 3 -2 5 17 5 19 0 27 -2 18 -5z
m1440 0 c-10 -2 -26 -2 -35 0 -10 3 -2 5 17 5 19 0 27 -2 18 -5z m-1345 -10
c-13 -2 -33 -2 -45 0 -13 2 -3 4 22 4 25 0 35 -2 23 -4z m1265 0 c-10 -2 -28
-2 -40 0 -13 2 -5 4 17 4 22 1 32 -1 23 -4z m-1165 -10 c-13 -2 -33 -2 -45 0
-13 2 -3 4 22 4 25 0 35 -2 23 -4z m1070 0 c-13 -2 -35 -2 -50 0 -16 2 -5 4
22 4 28 0 40 -2 28 -4z m-940 -10 c-18 -2 -48 -2 -65 0 -18 2 -4 4 32 4 36 0
50 -2 33 -4z m815 0 c-15 -2 -42 -2 -60 0 -18 2 -6 4 27 4 33 0 48 -2 33 -4z
m-526 -10 c-40 -2 -103 -2 -140 0 -37 2 -4 3 73 3 77 0 107 -2 67 -3z m135 1
c-3 -3 -12 -4 -19 -1 -8 3 -5 6 6 6 11 1 17 -2 13 -5z m191 -1 c-32 -2 -86 -2
-120 0 -35 2 -9 3 57 3 66 0 94 -1 63 -3z"/>
</g>
</svg>
